HIERARCHY
ROOT base
{
	OFFSET 0.0 0.0 0.0
	CHANNELS 6 Xposition Yposition Zposition Zrotation Yrotation Xrotation
	JOINT root
	{
		OFFSET 0 0 0
		CHANNELS 6 Xposition Yposition Zposition Zrotation Yrotation Xrotation
		JOINT chest
		{
			OFFSET 0 4.72302 0
			CHANNELS 3 Zrotation Yrotation Xrotation
			JOINT neck
			{
				OFFSET 0 4.47788 0
				CHANNELS 3 Zrotation Yrotation Xrotation
				End Site
				{
					OFFSET 0.0 0.0 0.0
				}
			}
			JOINT right_shoulder
			{
				OFFSET -0.481 4.87 3.6622
				CHANNELS 3 Zrotation Yrotation Xrotation
				JOINT right_elbow
				{
					OFFSET 0 -5.49576 0
					CHANNELS 3 Zrotation Yrotation Xrotation
					JOINT right_wrist
					{
						OFFSET 0 -5.17894 0
						CHANNELS 3 Zrotation Yrotation Xrotation
						End Site
						{
							OFFSET 0.0 0.0 0.0
						}
					}
				}
			}
			JOINT left_shoulder
			{
				OFFSET -0.481 4.87 -3.6622
				CHANNELS 3 Zrotation Yrotation Xrotation
				JOINT left_elbow
				{
					OFFSET 0 -5.49576 0
					CHANNELS 3 Zrotation Yrotation Xrotation
					JOINT left_wrist
					{
						OFFSET 0 -5.17894 0
						CHANNELS 3 Zrotation Yrotation Xrotation
						End Site
						{
							OFFSET 0.0 0.0 0.0
						}
					}
				}
			}
		}
		JOINT right_hip
		{
			OFFSET 0 0 1.69774
			CHANNELS 3 Zrotation Yrotation Xrotation
			JOINT right_knee
			{
				OFFSET 0 -8.43092 0
				CHANNELS 3 Zrotation Yrotation Xrotation
				JOINT right_ankle
				{
					OFFSET 0 -8.1974 0
					CHANNELS 3 Zrotation Yrotation Xrotation
					End Site
					{
						OFFSET 0.0 0.0 0.0
					}
				}
			}
		}
		JOINT left_hip
		{
			OFFSET 0 0 -1.69774
			CHANNELS 3 Zrotation Yrotation Xrotation
			JOINT left_knee
			{
				OFFSET 0 -8.43092 0
				CHANNELS 3 Zrotation Yrotation Xrotation
				JOINT left_ankle
				{
					OFFSET 0 -8.1974 0
					CHANNELS 3 Zrotation Yrotation Xrotation
					End Site
					{
						OFFSET 0.0 0.0 0.0
					}
				}
			}
		}
	}
	JOINT red_arrow
	{
		OFFSET 0 0 0
		CHANNELS 3 Zrotation Yrotation Xrotation
		End Site
		{
			OFFSET 0.0 0.0 0.0
		}
	}
	JOINT blue_arrow
	{
		OFFSET 0 0 0
		CHANNELS 3 Zrotation Yrotation Xrotation
		End Site
		{
			OFFSET 0.0 0.0 0.0
		}
	}
}
MOTION
Frames: 12
Frame Time: 0.0333333333333333
660.032342416048 0 -5.20701119508594 0 -0.840417367799539 0 0 16.6785562634468 0 -15.9055879493425 -0.618996819382154 -0.626680460596992 -16.2284404703968 0.872965128109093 -2.55845319169314 -10.0170963823609 -11.8069843168722 -12.3116284939075 31.9602579817831 19.9355027273276 -40.8100714575695 95.255915033073 0 0 0 0 0 -52.8187044004075 18.1252160531105 29.7154865552243 74.3730282872984 0 0 0 0 0 -10.2927756714636 -2.37640700290935 -2.07559424477631 -54.2451984637012 0 0 -6.23894554832488 -0.0766326067263367 0.57563705959181 54.9636347166216 1.81164410701254 -1.29004393344728 -36.8297289670698 0 0 3.71133540383377 9.68931416520193 -12.1223170388718 0 0 0 0 0 0
662.371264752746 0 -5.21697739437223 0 -0.860472611924284 0 0 15.9222245931625 0 -13.7018244763438 -0.370205873131182 -0.671695984344025 -18.0727322805893 1.01719714197401 -3.72183271393482 -10.5391532117283 -12.4431937769354 -17.0805906534402 24.3660009307496 12.263138671087 -30.438111564058 85.7953312212291 0 0 0 0 0 -42.7143410545645 13.3458245853261 24.3293847477254 71.6128532210479 0 0 0 0 0 -5.96409086500455 -1.58857661575664 -1.42145103812878 -76.012096103183 0 0 -4.42575346259753 -0.0543209824667998 0.421682749618302 49.7322262691191 0.857888420929033 -3.14470470914641 -43.2310164081516 0 0 7.57388599815034 6.63844373910747 4.67174557192157 0 0 0 0 0 0
664.333668893576 0 -5.31731218248606 0 -0.608446448927647 0 0 15.5692374944687 0 -17.0550168191394 4.57883199223232 0.690589319153634 -13.470206198065 -1.27891369948171 -4.16137000536145 -9.54569298705021 -11.0081798365414 -23.2603124181537 5.58138000655037 9.82924978130851 -23.0543385658392 72.3832985594253 0 0 0 0 0 -27.4580327562106 4.03917770774765 18.4463096737519 68.0279874540317 0 0 0 0 0 7.61496283211043 -2.22297043448823 -1.89466824255138 -96.9281297569997 0 0 -2.23038705225914 -0.486332259313427 0.524445760990673 51.4950915984209 0.586680539620154 -7.76039197299583 -53.8461719821999 0 0 19.6247624640557 4.77156646458077 4.72607640519659 0 0 0 0 0 0
666.182457768917 0 -5.46874087527394 0 -0.129419450809684 0 0 15.6003959059715 0 -18.9841931936437 8.61410109021991 2.37540341751726 -11.501330639588 -1.9207602161645 -4.80091185889201 -9.53556862893216 -7.66796604936782 -19.2535499100179 -11.3447453090368 16.8970774859445 -25.7237489603822 57.4743684693106 0 0 0 0 0 -6.03807816991943 -4.23937011291611 16.9883001164783 66.4275306975251 0 0 0 0 0 24.0743029152188 -0.402797611729792 -6.47829313162145 -111.137949004429 0 0 2.48818263778942 -2.84870707040725 3.6661532542326 46.0863550887538 2.50189913339914 -10.4204776075708 -54.0040688803376 0 0 26.4986259490811 -0.238675588654974 5.35592959065784 0 0 0 0 0 0
667.879314529896 0 -5.46579179987311 0 0.460500469551961 0 0 15.9147616863251 0 -23.5750467076981 10.293863430828 1.64419444710681 -5.20745653327833 -2.94060492369396 -3.35049005076145 -8.58858311897728 -0.613460960454274 -13.4570157748828 -25.459085833407 22.0405043151536 -30.0757438832178 47.1040444411561 0 0 0 0 0 15.5857913268545 -15.7191782301745 23.1710465702643 67.8682156689667 0 0 0 0 0 49.0960381329821 4.48725913365843 -9.31311521757171 -116.936007798393 0 0 7.90708255779862 -7.58857056366976 13.5594861648299 41.1941665087703 1.80628585271028 -9.92478939275325 -47.911229367079 0 0 29.603343157504 -3.45508536228909 4.38506550538066 0 0 0 0 0 0
669.976218944788 0 -5.45330241248012 0 0.912418473143301 0 0 16.485244512558 0 -23.9128262630969 7.85904253951508 0.711720053973754 -4.87845951000047 -2.6348883725204 -1.71541756092698 -4.59451208436606 7.04120356831016 -6.80991754778152 -37.6923731790077 22.8715114622418 -35.6931164426208 42.3819487622382 0 0 0 0 0 33.3179521691169 -28.1664378760823 34.6444503458866 77.1240099189261 0 0 0 0 0 67.3363738353301 7.15571297780038 -6.91872539518601 -111.503883219401 0 0 8.64858259169158 -11.7046283236707 22.5130704179955 26.2162093121815 0.0385164733704453 -7.07305552008172 -31.249146811373 0 0 28.2801599709254 -3.07856010753574 3.26151329840229 0 0 0 0 0 0
672.110645097494 0 -5.51647523716092 0 1.209017416012 0 0 17.137500834465 0 -25.827490080072 5.07556292108065 0.177465618262018 -4.07006925460903 -2.44742422062903 -0.0343363862808363 -1.29976646075094 8.37881981161189 -1.85414685388103 -49.1003812570007 17.6277375722298 -41.3699219418511 42.7739503941781 0 0 0 0 0 40.8893191126989 -34.0711020131706 42.0833550412718 92.5104931754297 0 0 0 0 0 76.7760716937695 6.48153081646934 -4.24897774781866 -94.6701921607986 0 0 7.06268360301576 -12.5558789164681 25.3199518597809 18.0794150990848 -0.52760761805021 -5.47507927512235 -22.7867849014427 0 0 11.5371145308888 -0.340420482730176 3.41938232414973 0 0 0 0 0 0
674.267973130941 0 -5.58937099762261 0 1.382925796211 0 0 17.7733371138573 0 -27.7577266640013 2.92472403042885 0.757843016433314 -4.33304933636543 -2.89788262253014 0.87499065817524 -0.117048592493133 6.9612491491515 0.6418846014759 -53.7196418911988 9.71711972947772 -42.0951455220363 46.0219409860456 0 0 0 0 0 41.0398770046628 -33.1352271723826 45.3286870429351 103.562640837481 0 0 0 0 0 77.9615640043779 3.38541877249867 -3.71283031729523 -70.2561795763974 0 0 6.37362626715388 -12.6265786770565 24.3647243928223 10.693914946054 0.464786419042497 -4.52254277817246 -13.6837529549126 0 0 -11.4512731335048 -2.71489314857075 -0.115893554692916 0 0 0 0 0 0
676.512114423513 0 -5.60937616359443 0 1.48932729769532 0 0 18.1269422411919 0 -28.0667445026645 1.78404908256929 1.19840726918762 -6.52313854116755 -4.19570025272676 1.92385059633666 0.64015546020935 6.13409036725649 2.53204498852645 -55.7600267525814 1.63290398825152 -41.2176712703942 51.3978121270333 0 0 0 0 0 38.1345490134024 -29.9993243791289 46.5265495447043 112.535535482207 0 0 0 0 0 75.2332930968945 0.341029108973184 -3.44923458838281 -47.5287012075179 0 0 5.65332690502268 -11.6252016821949 21.6226337487499 1.6799598381434 3.77525309340416 -3.0504164865449 -4.66505164651727 0 0 -20.402739712686 -5.18073939619114 -3.22512296037721 0 0 0 0 0 0
678.874539864063 0 -5.5939553629607 0 1.55814510760043 0 0 18.200396835804 0 -26.991701745549 1.16515285783264 1.53853111489732 -8.70732162131501 -5.18763949928867 2.39746425775301 1.43412987851057 6.44084467513298 5.24590299760474 -55.8241980229947 -5.06403931043617 -39.3492909796455 57.5360177567592 0 0 0 0 0 33.7693000731335 -26.4866821655379 45.0201777098955 119.906224842 0 0 0 0 0 70.3320175972953 -2.68926820038849 -3.0333991751873 -31.3670153858799 0 0 5.08476788508421 -10.4746949299505 17.883535484025 -5.56660772504119 7.73452210881686 -1.54232471743469 -3.1776987672413 0 0 -21.5703283378785 -5.43352590396248 -5.00281950603384 0 0 0 0 0 0
681.310193687677 0 -5.61112762838602 0 1.62266980695504 0 0 18.0137461543083 0 -24.7320155380324 1.11354643670026 2.01435861292724 -10.8723949792772 -5.67091109613972 3.04144460155648 3.64058717456134 7.46143296939241 8.25256604408247 -56.3742702339556 -10.8410854367946 -38.5052536429166 63.0272849437743 0 0 0 0 0 29.5813464437849 -23.2857970790842 42.1486718709897 122.166593985546 0 0 0 0 0 65.4774233507836 -5.03200763453022 -3.21919002876695 -25.0147106464309 0 0 4.45208484173568 -8.70080201064332 13.802547223838 -9.4281322497569 10.0166424442302 0.00127742798324471 -12.7101393708049 0 0 -19.3039918152089 -4.39389482101509 -5.79278496157597 0 0 0 0 0 0
683.779512614012 0 -5.6552300080657 0 1.68171586922483 0 0 17.5937425613403 0 -21.6476671691691 1.04276735202529 2.52091834299131 -13.2872281472952 -5.73508150497361 3.92570625970718 6.58539137894858 8.5558845370181 11.0214445810942 -55.8707218704561 -13.948728191319 -37.805331496018 66.1088545614198 0 0 0 0 0 25.8017078724779 -19.958850557045 37.6335093844382 120.190879805849 0 0 0 0 0 61.473552752925 -6.74472724004993 -3.64855025641385 -27.5922686523901 0 0 3.93787401238418 -7.36715910096764 10.4865480249037 -11.1143986431591 9.97298865939266 1.38459534886069 -29.8580285227382 0 0 -17.6155033665132 -3.39451544404513 -6.72446834434888 0 0 0 0 0 0
